<svg width="260" height="80" viewBox="0 0 260 80" xmlns="http://www.w3.org/2000/svg">
  <g>
    <path d="M44 18c-1 0-2 .4-3 .8-1.6-4.6-4.4-6.8-7.6-6.8-.3 0-.6 0-.9.1C30.5 9.4 28 8 25.8 8c-6 0-9 7.5-10 11.3-2.4.7-4.1 1.3-4.3 1.3-1.3.4-1.4.5-1.6 1.7C9.8 23.2 6 53 6 53l30.5 5.6V18.2c-.2 0-.4 0-.5.1zM32.6 21.4l-4.7 1.4c0-.3 0-.6 0-1 0-2.6-.4-4.8-1-6.5 2.4.3 4 3 5.7 6.1zM25.9 11.2c.5 0 1 .2 1.4.5-2.2 1-4.6 3.7-5.6 9l-3.8 1.2c1.1-3.7 3.6-10.7 8-10.7z" fill="#95BF47"/>
    <path d="M44 18.8V58.6L57 56s-5.6-37.8-5.6-38c-.1-.3-.3-.5-.7-.5s-4.1-.3-4.1-.3-3.3-3.2-3.6-3.5V18.8z" fill="#5E8E3E"/>
    <path d="M33.5 30.2l-1.5 5.6s-1.7-.8-3.7-.8c-3 0-3.1 1.9-3.1 2.3 0 2.3 6.6 3.2 6.6 9.2 0 4.7-3 7.8-7 7.8-4.9 0-7.3-3-7.3-3l1.3-4.3s2.6 2.2 4.7 2.2c1.4 0 2-1.1 2-1.9 0-3-5.4-3.2-5.4-8.7 0-4.6 3.3-9.1 9.9-9.1 2.6 0 3.5.7 3.5.7z" fill="#fff"/>
  </g>
  <text x="68" y="50" font-family="Arial, Helvetica, sans-serif" font-size="34" font-weight="700" fill="#5E8E3E">Shopify</text>
</svg>
